<svg width="167" height="38" viewBox="0 0 167 38" fill="none" xmlns="http://www.w3.org/2000/svg">
<g filter="url(#filter0_b_826_334)">
<mask id="path-1-inside-1_826_334" fill="white">
<rect width="167" height="38" rx="0.8"/>
</mask>
<rect width="167" height="38" rx="0.8" fill="black" fill-opacity="0.3"/>
<rect width="167" height="38" rx="0.8" stroke="white" stroke-width="1.84567" mask="url(#path-1-inside-1_826_334)"/>
</g>
<g clip-path="url(#clip0_826_334)">
<path d="M145.867 12.0449H156.433V23.6573" stroke="white" stroke-width="1.84567" stroke-miterlimit="10"/>
<path d="M156.433 12.0449L143.441 26.323" stroke="white" stroke-width="0.922834" stroke-miterlimit="10"/>
</g>
<path d="M15.7769 25.1846C18.6193 25.1846 20.428 23.6527 20.428 21.3456C20.428 18.8724 18.7854 18.4294 17.0135 18.0418L14.7987 17.562C13.4329 17.2667 12.7685 16.9344 12.7685 15.3656C12.7685 13.7783 13.6544 13.1693 15.4632 13.1693C17.5672 13.1693 18.8777 13.7968 18.8038 16.5838L20.225 16.1408C20.2435 13.5384 18.6193 11.8958 15.537 11.8958C12.9531 11.8958 11.1997 13.3538 11.1997 15.5317C11.1997 18.171 13.0269 18.6324 14.5034 18.9462L16.3676 19.3523C18.2501 19.7583 18.8592 19.906 18.8592 21.5671C18.8592 23.2466 17.8995 23.9111 15.8508 23.9111C13.8021 23.9111 12.5839 23.2835 12.3625 20.5704L10.8306 21.0503C11.2366 24.0403 13.2115 25.1846 15.7769 25.1846ZM27.4296 16.1408C25.6024 16.1408 24.6795 17.1005 24.255 18.4663V12.0803H22.8339V25H24.255V20.9949C24.255 18.7432 25.3255 17.4328 27.0235 17.4328C28.3155 17.4328 29.1645 18.2079 29.1645 19.6291V25H30.5857V19.5368C30.5857 17.3589 29.4598 16.1408 27.4296 16.1408ZM37.377 16.1408C34.8854 16.1408 32.892 17.9495 32.892 20.6627C32.892 23.3758 34.8854 25.1846 37.377 25.1846C39.8687 25.1846 41.862 23.3758 41.862 20.6627C41.862 17.9495 39.8687 16.1408 37.377 16.1408ZM37.377 23.8926C35.3283 23.8926 34.3501 22.859 34.3501 20.6627C34.3501 18.4663 35.3283 17.4328 37.377 17.4328C39.4257 17.4328 40.4039 18.4663 40.4039 20.6627C40.4039 22.859 39.4257 23.8926 37.377 23.8926ZM48.971 16.1408C47.476 16.1408 46.3317 16.8606 45.6857 18.0972V16.3254H44.2645V28.1376H45.6857V23.2282C46.3317 24.4648 47.476 25.1846 48.971 25.1846C51.4626 25.1846 53.1237 23.3758 53.1237 20.6627C53.1237 17.9495 51.4626 16.1408 48.971 16.1408ZM48.6388 23.8926C46.5716 23.8926 45.6119 22.859 45.6119 20.6627C45.6119 18.4663 46.5716 17.4328 48.6388 17.4328C50.7059 17.4328 51.6657 18.4663 51.6657 20.6627C51.6657 22.859 50.7059 23.8926 48.6388 23.8926ZM60.236 16.1408C58.7411 16.1408 57.5967 16.8606 56.9508 18.0972V16.3254H55.5296V28.1376H56.9508V23.2282C57.5967 24.4648 58.7411 25.1846 60.236 25.1846C62.7277 25.1846 64.3888 23.3758 64.3888 20.6627C64.3888 17.9495 62.7277 16.1408 60.236 16.1408ZM59.9038 23.8926C57.8367 23.8926 56.8769 22.859 56.8769 20.6627C56.8769 18.4663 57.8367 17.4328 59.9038 17.4328C61.971 17.4328 62.9307 18.4663 62.9307 20.6627C62.9307 22.859 61.971 23.8926 59.9038 23.8926ZM67.5329 14.1844C68.2158 14.1844 68.585 13.7968 68.5665 13.1324C68.548 12.4864 68.1789 12.1357 67.5329 12.1357C66.8316 12.1357 66.444 12.4864 66.4624 13.1324C66.4809 13.7968 66.8685 14.1844 67.5329 14.1844ZM66.7947 25H68.2158V16.3254H66.7947V25ZM75.9505 16.1408C74.1233 16.1408 73.2004 17.1005 72.7759 18.4663V16.3254H71.3548V25H72.7759V20.9949C72.7759 18.7432 73.8464 17.4328 75.5444 17.4328C76.8364 17.4328 77.6854 18.2079 77.6854 19.6291V25H79.1066V19.5368C79.1066 17.3589 77.9807 16.1408 75.9505 16.1408ZM88.5372 16.3254V17.9865C87.9466 16.8421 86.8576 16.1408 85.418 16.1408C83.0925 16.1408 81.4129 17.8942 81.4129 20.4043C81.4129 22.8959 83.0925 24.6493 85.418 24.6493C86.8576 24.6493 87.9466 23.948 88.5372 22.8037V24.594C88.5372 26.2735 87.7251 27.0671 85.7318 27.0671C83.9599 27.0671 83.3878 26.698 82.8895 25.2215L81.5237 25.8675C82.1327 27.5286 83.517 28.3222 85.7318 28.3222C88.3526 28.3222 89.9584 26.8272 89.9584 24.594V16.3254H88.5372ZM85.7318 23.3389C83.7938 23.3389 82.871 22.3976 82.871 20.4043C82.871 18.3925 83.7938 17.4328 85.7687 17.4328C87.7251 17.4328 88.6479 18.3925 88.6479 20.4043C88.6479 22.3976 87.7066 23.3389 85.7318 23.3389ZM108.72 16.1408C107.078 16.1408 106.044 17.0267 105.564 18.5955C105.269 17.0083 104.198 16.1408 102.482 16.1408C100.655 16.1408 99.7319 17.1005 99.3074 18.4663V16.3254H97.8862V25H99.3074V20.9949C99.3074 18.7432 100.378 17.4328 102.076 17.4328C103.368 17.4328 104.217 18.2079 104.217 19.6291V25H105.638V21.4932C105.638 18.9647 106.469 17.4328 108.425 17.4328C109.698 17.4328 110.548 18.2079 110.548 19.7583V25H111.969V19.666C111.969 17.4328 110.806 16.1408 108.72 16.1408ZM121.709 16.3254V18.0972C121.063 16.8606 119.919 16.1408 118.424 16.1408C115.932 16.1408 114.271 17.9495 114.271 20.6627C114.271 23.3758 115.932 25.1846 118.424 25.1846C119.919 25.1846 121.063 24.4648 121.709 23.2282V25H123.13V16.3254H121.709ZM118.756 23.8926C116.689 23.8926 115.729 22.859 115.729 20.6627C115.729 18.4663 116.689 17.4328 118.756 17.4328C120.823 17.4328 121.783 18.4663 121.783 20.6627C121.783 22.859 120.823 23.8926 118.756 23.8926ZM126.274 25H127.695V12.0803H126.274V25ZM130.834 25H132.255V12.0803H130.834V25Z" fill="white"/>
<defs>
<filter id="filter0_b_826_334" x="-6" y="-6" width="179" height="50" filterUnits="userSpaceOnUse" color-interpolation-filters="sRGB">
<feFlood flood-opacity="0" result="BackgroundImageFix"/>
<feGaussianBlur in="BackgroundImageFix" stdDeviation="3"/>
<feComposite in2="SourceAlpha" operator="in" result="effect1_backgroundBlur_826_334"/>
<feBlend mode="normal" in="SourceGraphic" in2="effect1_backgroundBlur_826_334" result="shape"/>
</filter>
<clipPath id="clip0_826_334">
<rect width="13.0615" height="14.3552" fill="white" transform="translate(143.414 12)"/>
</clipPath>
</defs>
</svg>
