<svg width="393" height="177" viewBox="0 0 393 177" fill="none" xmlns="http://www.w3.org/2000/svg">
<path d="M10.1406 25.9258H23.9102L67.3867 95.6523V25.9258H78.4609V112H65.3945L21.2734 42.332V112H10.1406V25.9258ZM164.296 25.9258V36.1797H135.292V112H123.456V36.1797H94.4523V25.9258H164.296ZM242.455 25.9258V36.1797H213.452V112H201.616V36.1797H172.612V25.9258H242.455ZM260.795 84.2266C261.069 89.1094 262.221 93.0742 264.252 96.1211C268.12 101.824 274.936 104.676 284.702 104.676C289.077 104.676 293.061 104.051 296.655 102.801C303.608 100.379 307.084 96.043 307.084 89.793C307.084 85.1055 305.62 81.7656 302.69 79.7734C299.721 77.8203 295.073 76.1211 288.745 74.6758L277.084 72.0391C269.467 70.3203 264.077 68.4258 260.913 66.3555C255.444 62.7617 252.709 57.3906 252.709 50.2422C252.709 42.5078 255.385 36.1602 260.737 31.1992C266.088 26.2383 273.666 23.7578 283.471 23.7578C292.495 23.7578 300.151 25.9453 306.44 30.3203C312.768 34.6562 315.932 41.6094 315.932 51.1797H304.975C304.389 46.5703 303.139 43.0352 301.225 40.5742C297.67 36.082 291.635 33.8359 283.12 33.8359C276.245 33.8359 271.303 35.2813 268.295 38.1719C265.288 41.0625 263.784 44.4219 263.784 48.25C263.784 52.4688 265.541 55.5547 269.057 57.5078C271.362 58.7578 276.577 60.3203 284.702 62.1953L296.772 64.9492C302.592 66.2773 307.084 68.0938 310.248 70.3984C315.717 74.4219 318.452 80.2617 318.452 87.918C318.452 97.4492 314.975 104.266 308.022 108.367C301.108 112.469 293.061 114.52 283.881 114.52C273.178 114.52 264.799 111.785 258.745 106.316C252.69 100.887 249.721 93.5234 249.838 84.2266H260.795Z" fill="white"/>
<path d="M355.72 24.1567V27.8311H345.327V55H341.086V27.8311H330.693V24.1567H355.72ZM359.458 24.1567H365.441L374.302 50.2339L383.099 24.1567H389.02V55H385.052V36.7964C385.052 36.1665 385.066 35.1237 385.094 33.668C385.122 32.2122 385.136 30.6515 385.136 28.9858L376.338 55H372.202L363.342 28.9858V29.9307C363.342 30.6865 363.356 31.8413 363.384 33.395C363.426 34.9347 363.447 36.0685 363.447 36.7964V55H359.458V24.1567Z" fill="white"/>
</svg>
