<svg width="384" height="144" viewBox="0 0 384 144" fill="none" xmlns="http://www.w3.org/2000/svg">
<path d="M9.84 116V26.84L64.32 79.28C67.8 82.64 70.8 86.12 73.68 89.72V30.2H86.52V119.36L30.96 65.96C27.84 62.96 25.08 59.72 22.68 56.36V116H9.84ZM138.688 42.08V116H124.768V42.08H101.968V30.2H161.368V42.08H138.688ZM204.543 42.08V116H190.623V42.08H167.823V30.2H227.223V42.08H204.543ZM232.958 98.84L244.118 93.68C246.158 101.36 251.918 105.44 260.678 105.44C269.078 105.44 274.238 100.4 274.238 92.72C274.238 84.32 267.878 82.28 258.998 77.96C243.758 70.52 235.358 64.76 235.358 51.8C235.358 38 245.558 28.28 261.158 28.28C273.878 28.28 282.638 33.44 285.878 42.44L274.958 48.08C271.598 42.8 267.638 40.28 262.238 40.28C254.678 40.28 249.998 44.6 249.998 51.08C249.998 59.36 256.718 61.88 266.318 66.32C281.438 73.28 288.518 79.4 288.518 91.76C288.518 107.72 277.838 118.28 260.078 118.28C245.438 118.28 235.838 111.32 232.958 98.84Z" fill="white"/>
<path d="M320.47 28.5977H344.699V33.1748H335.335V59H329.876V33.1748H320.47V28.5977ZM355.701 28.5977L364.729 50.6855H365.107L374.136 28.5977H380.854V59H375.605V38.0879H375.312L366.871 58.916H362.966L354.525 38.0039H354.273V59H348.982V28.5977H355.701Z" fill="white"/>
</svg>
