<svg width="160" height="34" viewBox="0 0 160 34" fill="none" xmlns="http://www.w3.org/2000/svg">
<path d="M0 0.125V2.52777H5.87961V33.5651H8.77547V2.52777H14.6505V0.125H0Z" fill="white"/>
<path d="M80.9085 2.42186H87.1904V0.0175781H80.7879L80.3889 0.0453198V0.0823088C78.6398 0.331984 77.3222 1.81617 77.3222 3.61475V15.1969H73.6338V17.6012H77.3222V33.5666H80.2265V17.6012H87.195V15.1969H80.2265V3.61475C80.2265 3.06917 80.3471 2.42186 80.9131 2.42186H80.9085Z" fill="white"/>
<path d="M142.746 17.592V15.1877H135.836V0.0175781H132.954V15.1877H129.294V17.592H132.954V29.9694C132.954 31.7634 134.261 33.2475 135.997 33.5018V33.5666H142.746V31.1623H136.513C135.951 31.1623 135.831 30.515 135.831 29.9694V17.592H142.742H142.746Z" fill="white"/>
<path d="M25.2772 15.2125C23.4899 15.2125 21.874 15.9699 20.7628 17.2814V0.125H17.8643V33.5651H20.7628V21.7703H20.7813V21.3731C20.7813 19.5628 22.9575 18.1035 24.7586 18.1035C26.5598 18.1035 27.9673 19.4935 28.0229 21.2577V33.5651H30.9214V21.2946H30.9353V20.976C30.9353 17.7433 28.4489 15.2079 25.2772 15.2079V15.2125Z" fill="white"/>
<path d="M125.1 26.2882C124.288 29.2725 121.663 31.4404 118.862 31.4404C115.406 31.4404 112.373 28.1978 112.373 24.5032C112.373 20.8085 115.406 17.5659 118.862 17.5659C121.663 17.5659 124.288 19.7338 125.1 22.7181L125.188 23.0364L128.096 22.7781L127.989 22.3307C126.974 18.1102 123.221 15.1582 118.862 15.1582C113.686 15.1582 109.47 19.3464 109.47 24.4985C109.47 29.6507 113.681 33.8389 118.862 33.8389C123.221 33.8389 126.974 30.8915 127.989 26.6664L128.096 26.219L125.188 25.9607L125.1 26.279V26.2882Z" fill="white"/>
<path d="M43.7657 15.1582C38.5855 15.1582 34.3662 19.3464 34.3662 24.4985C34.3662 29.6507 38.5809 33.8389 43.7657 33.8389C47.414 33.8389 50.9139 31.897 52.4781 29.0004L52.7659 28.4699L49.5817 28.1886L49.4471 28.3684C48.3331 29.8906 46.0215 31.4358 43.761 31.4358C40.8043 31.4358 38.1028 29.0511 37.4297 25.9284H52.1022L53.0491 25.9238L53.0908 25.5733C53.1373 25.1812 53.1558 24.8306 53.1558 24.4985C53.1558 19.351 48.9412 15.1582 43.7564 15.1582H43.7657ZM37.3508 23.5299C37.8289 20.2458 40.6232 17.6397 43.7657 17.6397C46.9081 17.6397 49.7024 20.2458 50.1805 23.5299H37.3462H37.3508Z" fill="white"/>
<path d="M97.1389 15.1582C91.9888 15.1582 87.7939 19.3464 87.7939 24.4985C87.7939 29.6507 91.9842 33.8389 97.1389 33.8389C100.766 33.8389 104.246 31.897 105.801 29.0004L106.087 28.4699L102.921 28.1886L102.787 28.3684C101.68 29.8906 99.3817 31.4358 97.1343 31.4358C94.1947 31.4358 91.5089 29.0511 90.8397 25.9284H105.427L106.368 25.9238L106.41 25.5733C106.456 25.1812 106.475 24.8306 106.475 24.4985C106.475 19.351 102.284 15.1582 97.1297 15.1582H97.1389ZM90.7613 23.5299C91.2366 20.2458 94.0147 17.6397 97.1389 17.6397C100.263 17.6397 103.041 20.2458 103.517 23.5299H90.7566H90.7613Z" fill="white"/>
<path d="M66.2013 15.1675C64.2728 15.1675 62.4927 16.7613 62.043 18.1143V15.1582H55.0615V17.5676H59.141V31.1063H55.0615V33.5156H59.141V33.5666H61.6443L62.043 33.5156H66.1271V31.1063H62.043V21.3345C62.043 19.5275 63.5172 18.0541 65.3251 18.0541C67.1331 18.0541 68.6072 19.5228 68.6072 21.3345V21.8117L71.5092 21.2696V20.9406C71.5092 17.6973 69.3814 15.1675 66.2059 15.1675H66.2013Z" fill="white"/>
<path d="M153.49 0V0.716669H151.46V6.02464H150.637V0.716669H148.607V0H153.495H153.49Z" fill="white"/>
<path d="M154.216 0H155.386L157.12 5.09528L158.84 0H160V6.02464H159.219V2.46904C159.219 2.3442 159.219 2.14076 159.228 1.85871C159.237 1.57667 159.237 1.27151 159.237 0.943228L157.517 6.02464H156.708L154.97 0.943228V1.12818C154.97 1.27613 154.97 1.50269 154.984 1.80323C154.993 2.10377 154.997 2.32571 154.997 2.46904V6.02464H154.216V0Z" fill="white"/>
<ellipse cx="114.208" cy="10.2013" rx="1.79727" ry="1.85173" fill="white"/>
<ellipse cx="108.68" cy="15.2656" rx="1.3888" ry="1.41603" fill="white"/>
<ellipse cx="122.487" cy="8.81286" rx="2.7776" ry="2.75036" fill="white"/>
</svg>
