<svg width="250" height="54" viewBox="0 0 250 54" fill="none" xmlns="http://www.w3.org/2000/svg">
<path d="M0 0.195312V3.9588H9.15066V52.573H13.6576V3.9588H22.801V0.195312H0Z" fill="black"/>
<path d="M125.92 3.78539H135.697V0.0195312H125.732L125.111 0.0629835V0.12092C122.389 0.51199 120.339 2.83669 120.339 5.65384V23.7952H114.598V27.561H120.339V52.5678H124.859V27.561H135.704V23.7952H124.859V5.65384C124.859 4.79928 125.046 3.78539 125.927 3.78539H125.92Z" fill="black"/>
<path d="M222.161 27.5465V23.7807H211.407V0.0195312H206.921V23.7807H201.225V27.5465H206.921V46.9335C206.921 49.7434 208.956 52.0681 211.657 52.4664V52.5678H222.161V48.8019H212.46C211.586 48.8019 211.399 47.788 211.399 46.9335V27.5465H222.154H222.161Z" fill="black"/>
<path d="M39.339 23.8271C36.5575 23.8271 34.0425 25.0134 32.313 27.0677V0.195312H27.802V52.573H32.313V34.0987H32.3419V33.4766C32.3419 30.641 35.7288 28.3553 38.5319 28.3553C41.3351 28.3553 43.5258 30.5325 43.6123 33.2957V52.573H48.1233V33.3536H48.1449V32.8545C48.1449 27.7911 44.2752 23.8199 39.339 23.8199V23.8271Z" fill="black"/>
<path d="M194.698 41.1753C193.435 45.8496 189.349 49.2452 184.99 49.2452C179.612 49.2452 174.891 44.1663 174.891 38.3793C174.891 32.5924 179.612 27.5135 184.99 27.5135C189.349 27.5135 193.435 30.909 194.698 35.5834L194.835 36.0819L199.361 35.6773L199.195 34.9765C197.614 28.366 191.775 23.7422 184.99 23.7422C176.934 23.7422 170.373 30.3022 170.373 38.3721C170.373 46.442 176.927 53.002 184.99 53.002C191.775 53.002 197.614 48.3855 199.195 41.7677L199.361 41.0669L194.835 40.6623L194.698 41.1608V41.1753Z" fill="black"/>
<path d="M68.1141 23.7422C60.052 23.7422 53.4854 30.3022 53.4854 38.3721C53.4854 46.442 60.0448 53.002 68.1141 53.002C73.7922 53.002 79.2391 49.9604 81.6736 45.4234L82.1215 44.5925L77.1658 44.1518L76.9563 44.4336C75.2225 46.8177 71.625 49.238 68.1068 49.238C63.5051 49.238 59.3007 45.5028 58.2532 40.6117H81.0885L82.5622 40.6045L82.6272 40.0555C82.6994 39.4414 82.7283 38.8923 82.7283 38.3721C82.7283 30.3094 76.1689 23.7422 68.0996 23.7422H68.1141ZM58.1304 36.8549C58.8745 31.711 63.2234 27.6291 68.1141 27.6291C73.0048 27.6291 77.3536 31.711 78.0977 36.8549H58.1232H58.1304Z" fill="black"/>
<path d="M151.18 23.7422C143.165 23.7422 136.636 30.3022 136.636 38.3721C136.636 46.442 143.158 53.002 151.18 53.002C156.825 53.002 162.241 49.9604 164.661 45.4234L165.106 44.5925L160.179 44.1518L159.971 44.4336C158.247 46.8177 154.671 49.238 151.173 49.238C146.598 49.238 142.418 45.5028 141.376 40.6117H164.079L165.544 40.6045L165.609 40.0555C165.681 39.4414 165.71 38.8923 165.71 38.3721C165.71 30.3094 159.188 23.7422 151.166 23.7422H151.18ZM141.254 36.8549C141.994 31.711 146.318 27.6291 151.18 27.6291C156.042 27.6291 160.366 31.711 161.106 36.8549H141.247H141.254Z" fill="black"/>
<path d="M103.032 23.7567C100.031 23.7567 97.2602 26.2532 96.5603 28.3724V23.7422H85.6948V27.516H92.0439V48.7219H85.6948V52.4957H92.0439V52.5755H95.9399L96.5603 52.4957H102.917V48.7219H96.5603V33.4162C96.5603 30.5858 98.8547 28.278 101.668 28.278C104.482 28.278 106.777 30.5786 106.777 33.4162V34.1637L111.293 33.3146V32.7993C111.293 27.7192 107.981 23.7567 103.039 23.7567H103.032Z" fill="black"/>
<path d="M238.9 0V1.12253H235.741V9.43648H234.46V1.12253H231.301V0H238.907H238.9Z" fill="black"/>
<path d="M240.029 0H241.85L244.548 7.98082L247.225 0H249.031V9.43648H247.815V3.86729C247.815 3.67175 247.815 3.3531 247.83 2.91133C247.844 2.46956 247.844 1.99158 247.844 1.47739L245.167 9.43648H243.908L241.202 1.47739V1.76708C241.202 1.99882 241.202 2.35369 241.224 2.82443C241.238 3.29516 241.245 3.64279 241.245 3.86729V9.43648H240.029V0Z" fill="black"/>
<ellipse cx="177.746" cy="15.9742" rx="2.7968" ry="2.90002" fill="black"/>
<ellipse cx="169.144" cy="23.913" rx="2.16116" ry="2.21766" fill="black"/>
<ellipse cx="190.63" cy="13.8001" rx="4.32288" ry="4.30793" fill="black"/>
</svg>
