<svg width="222" height="41" viewBox="0 0 222 41" fill="none" xmlns="http://www.w3.org/2000/svg">
<g clip-path="url(#clip0_1308_358)">
<path d="M36.9526 30.0445H43.5495C43.9681 34.2398 47.2665 36.3202 53.3779 36.3202C58.3171 36.3202 62.2518 34.8293 62.2518 31.9515C62.2518 24.2889 38.2921 29.6804 38.2921 18.3773C38.2921 13.5231 44.9057 10.0039 52.9593 10.0039C61.0128 10.0039 67.7102 13.7138 68.2962 20.1802H61.6993C61.1133 16.1062 57.8316 14.1993 52.7081 14.1993C48.4386 14.1993 44.8388 15.6382 44.8388 18.3946C44.8388 25.5198 68.7985 20.4229 68.7985 31.9688C68.7985 37.239 61.85 40.5155 53.3779 40.5155C43.9011 40.5155 37.3712 36.6322 36.9526 30.0445Z" fill="black"/>
<path d="M160.535 9.57031C152.147 9.57031 145.885 16.3487 145.885 25.2942C145.885 34.2397 152.13 41.0181 160.535 41.0181C167.383 41.0181 172.44 37.2561 174.533 29.923H167.752C167.216 33.4769 163.968 36.7014 160.535 36.7014C154.524 36.7014 152.632 32.2633 152.499 25.6063H174.817C175.655 16.6608 169.158 9.58765 160.535 9.58765V9.57031ZM160.535 13.887C165.893 13.887 167.902 17.4409 168.254 23.9593H152.532C152.951 17.8397 154.826 13.887 160.535 13.887Z" fill="black"/>
<path d="M221.782 4.40425C221.782 2.39325 220.275 0.902344 218.283 0.902344C216.29 0.902344 214.784 2.39325 214.784 4.40425C214.784 6.41524 216.29 7.90615 218.283 7.90615C220.275 7.90615 221.782 6.41524 221.782 4.40425Z" fill="black"/>
<path d="M202.98 0V8.21734C203.18 12.7421 204.386 13.6782 205.692 17.9949L204.235 18.6884L203.18 16.2786C201.473 12.4127 197.839 9.76025 193.737 9.60423C193.52 9.60423 193.319 9.60423 193.101 9.60423C184.713 9.60423 178.451 16.3827 178.451 25.3281C178.451 34.2736 184.696 41.052 193.101 41.052C193.134 41.052 193.168 41.052 193.185 41.052C197.438 41.0347 201.255 38.3649 203.013 34.3603L204.235 31.5691L205.692 32.2626L203.85 36.4579C203.281 37.7581 202.98 39.1624 202.98 40.5839H209.593V0H202.98ZM201.121 25.5882C201.004 32.2452 199.112 36.6833 193.084 36.6833C187.057 36.6833 185.181 32.2452 185.047 25.5882V24.3573C185.399 18.0123 187.241 13.8863 193.084 13.8863C198.928 13.8863 200.753 18.0123 201.121 24.3573V25.5882Z" fill="black"/>
<path d="M18.8698 20.7338C20.3767 16.7465 17.5638 12.8632 14.6839 9.79467L6.59688 0.121094H0L18.6019 22.9875V40.6357H25.2155V22.9875L43.8006 0.121094H37.2037L19.8911 21.982L18.853 20.7338H18.8698Z" fill="black"/>
<path d="M215.37 11.8926V40.5146H221.983V21.2888C221.866 18.515 221.498 16.9894 220.644 15.3945C219.555 13.3835 217.68 11.8926 215.37 11.8926Z" fill="black"/>
<path d="M140.543 18.256C139.053 13.2979 135.336 10.0734 129.627 10.0734C129.627 10.0734 120.317 9.18923 115.629 16.9558V16.9905C113.921 12.7605 110.372 10.0734 105.165 10.0734C105.165 10.0734 95.8553 9.18923 91.1672 16.9558C91.1672 16.9558 90.983 17.1985 90.7151 17.6146C90.5142 16.8171 90.2296 16.1064 89.8445 15.3956C88.7562 13.3846 86.8809 11.8937 84.5703 11.8937V40.5157H91.1839V23.5609C91.2677 20.7698 92.2053 18.048 94.0136 15.9677C95.8553 13.8353 98.2831 12.5871 100.929 12.5871C104.378 12.5871 107.157 14.2861 108.932 18.0653C109.903 20.1457 110.338 22.4341 110.338 24.7398V40.5157H116.969V24.9131C116.969 22.9195 116.634 20.8911 116.383 19.5909C116.851 18.2734 117.555 17.0252 118.476 15.9677C120.317 13.8353 122.745 12.5871 125.391 12.5871C128.84 12.5871 131.619 14.2861 133.394 18.0653C134.365 20.1457 134.8 22.4341 134.8 24.7398V40.5157H141.431V24.9131C141.431 21.6366 140.543 18.2387 140.543 18.2387V18.256Z" fill="black"/>
</g>
<defs>
<clipPath id="clip0_1308_358">
<rect width="222" height="41" fill="white"/>
</clipPath>
</defs>
</svg>
